<svg width="288" height="432" viewBox="0 0 288 432" fill="none" xmlns="http://www.w3.org/2000/svg">
<g clip-path="url(#clip0_7221_1320)">
<path d="M72 216C72 176.236 104.236 144 144 144V288H72V216Z" fill="#7171F9"/>
<path d="M72 360C72 399.764 39.7645 432 0 432V288C39.7645 288 72 320.236 72 360Z" fill="#A0A0F8"/>
<path d="M216 216C216 176.235 248.236 144 288 144L288 288C248.236 288 216 255.764 216 216Z" fill="#7171F9"/>
<path d="M72 216L144 216L144 288L72 216Z" fill="#A0A0F8"/>
<path d="M216 288L144 288L144 216L216 288Z" fill="#7171F9"/>
<path d="M144 432L72 432L72 360L144 432Z" fill="#7171F9"/>
<path d="M72 144L1.33495e-06 144L7.62939e-06 -3.14722e-06L72 144Z" fill="#7171F9"/>
<path d="M144 216L216 216L216 288L144 216Z" fill="#5050EF"/>
<path d="M1.88833e-05 -1.52588e-05L72 -5.81713e-06L72 144L1.88833e-05 -1.52588e-05Z" fill="#5050EF"/>
<path d="M144 144C183.764 144 216 176.236 216 216H144V144Z" fill="#5050EF"/>
<path d="M144 72C104.236 72 72 104.236 72 144H144V72Z" fill="#7171F9"/>
<path d="M72 216C32.2355 216 0 248.236 0 288H72V216Z" fill="#7171F9"/>
<path d="M0 216C39.7645 216 72 183.765 72 144L1.25889e-05 144L0 216Z" fill="#A0A0F8"/>
<path d="M144 0C104.236 0 72 32.2355 72 72H144V0Z" fill="#5050EF"/>
<path d="M144 72C183.764 72 216 104.236 216 144H144V72Z" fill="#5050EF"/>
<path d="M216 144C216 104.236 248.236 72 288 72L288 144L216 144Z" fill="#A0A0F8"/>
<path d="M288 72C248.236 72 216 39.7645 216 -6.29444e-06L288 0L288 72Z" fill="#5050EF"/>
<path d="M216 0C216 39.7645 183.764 72 144 72L144 -3.14722e-06L216 0Z" fill="#7171F9"/>
<path d="M216 360C216 320.236 248.236 288 288 288L288 360L216 360Z" fill="#A0A0F8"/>
<path d="M288 360C288 399.764 255.764 432 216 432L216 360L288 360Z" fill="#5050EF"/>
<rect x="72" y="288" width="72" height="72" fill="#5050EF"/>
<path d="M216 288V432H144L216 288Z" fill="#7171F9"/>
<path d="M144 432L144 288L216 288L144 432Z" fill="#A0A0F8"/>
</g>
<defs>
<clipPath id="clip0_7221_1320">
<rect width="288" height="432" fill="white"/>
</clipPath>
</defs>
</svg>
