<svg width="161" height="56" viewBox="0 0 161 56" fill="none" xmlns="http://www.w3.org/2000/svg">
<path d="M14.4336 47.7C15.0641 44.248 15.2131 41.6073 14.9764 39.6346C14.7434 37.6932 14.165 36.6025 13.5069 35.9444C12.8489 35.2865 11.7588 34.7093 9.8181 34.4763C7.84541 34.2395 5.20433 34.3878 1.75197 35.0184L0.583587 28.624L1.21957 28.5046C7.71804 27.2384 12.1196 25.1286 15.2077 22.0405C18.3956 18.8526 20.5408 14.2648 21.792 7.41568L28.1863 8.58406C28.1856 8.58797 28.1849 8.59189 28.1842 8.5958C27.5555 12.0421 27.4071 14.6789 27.6435 16.6495C27.8765 18.591 28.4549 19.6816 29.113 20.3397C29.771 20.9977 30.8609 21.5748 32.8018 21.8078C34.7746 22.0446 37.4153 21.8965 40.868 21.2657L42.0363 27.6601L41.4004 27.7795C34.9018 29.0458 30.4999 31.156 27.4115 34.2443C24.2236 37.4322 22.0787 42.0198 20.828 48.8684L14.4336 47.7Z" stroke="#110000" stroke-width="6.5" stroke-miterlimit="3.99393"/>
<mask id="path-2-outside-1_7164_10080" maskUnits="userSpaceOnUse" x="51.668" y="2" width="109" height="52" fill="black">
<rect fill="white" x="51.668" y="2" width="109" height="52"/>
<path d="M54.078 25V4H58.278L67.788 18.25V4H71.988V25H67.788L58.278 10.81V25H54.078ZM76.0202 25V4H89.9102V7.39H80.2202V12.7H89.0102V15.97H80.2202V21.61H89.9102V25H76.0202ZM101.402 25.36C99.842 25.36 98.432 25.05 97.172 24.43C95.912 23.81 94.902 22.87 94.142 21.61C93.402 20.35 93.032 18.77 93.032 16.87V4H97.232V16.9C97.232 18.42 97.602 19.57 98.342 20.35C99.102 21.11 100.152 21.49 101.492 21.49C102.832 21.49 103.872 21.11 104.612 20.35C105.372 19.57 105.752 18.42 105.752 16.9V4H109.952V16.87C109.952 18.77 109.562 20.35 108.782 21.61C108.022 22.87 106.992 23.81 105.692 24.43C104.392 25.05 102.962 25.36 101.402 25.36ZM113.606 25V4H122.516C124.216 4 125.616 4.29 126.716 4.87C127.836 5.43 128.666 6.21 129.206 7.21C129.766 8.19 130.046 9.3 130.046 10.54C130.046 11.5 129.836 12.39 129.416 13.21C128.996 14.01 128.436 14.7 127.736 15.28C128.496 15.8 129.076 16.47 129.476 17.29C129.896 18.11 130.126 19.05 130.166 20.11L130.406 25H126.296L125.966 20.11C125.926 19.41 125.786 18.84 125.546 18.4C125.326 17.94 124.976 17.6 124.496 17.38C124.016 17.16 123.366 17.05 122.546 17.05H117.806V25H113.606ZM117.806 13.66H122.246C123.486 13.66 124.386 13.38 124.946 12.82C125.506 12.26 125.786 11.5 125.786 10.54C125.786 9.56 125.506 8.8 124.946 8.26C124.386 7.7 123.486 7.42 122.246 7.42H117.806V13.66ZM143.692 25.36C141.612 25.36 139.772 24.9 138.172 23.98C136.592 23.06 135.352 21.79 134.452 20.17C133.572 18.53 133.132 16.64 133.132 14.5C133.132 12.36 133.572 10.48 134.452 8.86C135.352 7.22 136.592 5.94 138.172 5.02C139.772 4.1 141.612 3.64 143.692 3.64C145.792 3.64 147.632 4.1 149.212 5.02C150.792 5.94 152.022 7.22 152.902 8.86C153.802 10.48 154.252 12.36 154.252 14.5C154.252 16.64 153.802 18.53 152.902 20.17C152.022 21.79 150.792 23.06 149.212 23.98C147.632 24.9 145.792 25.36 143.692 25.36ZM143.722 21.58C145.002 21.58 146.102 21.3 147.022 20.74C147.962 20.16 148.692 19.34 149.212 18.28C149.732 17.22 149.992 15.96 149.992 14.5C149.992 13.04 149.732 11.78 149.212 10.72C148.692 9.66 147.962 8.85 147.022 8.29C146.102 7.71 145.002 7.42 143.722 7.42C142.442 7.42 141.332 7.71 140.392 8.29C139.452 8.85 138.722 9.66 138.202 10.72C137.682 11.78 137.422 13.04 137.422 14.5C137.422 15.96 137.682 17.22 138.202 18.28C138.722 19.34 139.452 20.16 140.392 20.74C141.332 21.3 142.442 21.58 143.722 21.58ZM59.388 53V35.39H53.268V32H69.678V35.39H63.588V53H59.388ZM86.1154 53V32H90.3154V53H86.1154ZM72.8854 53V32H77.0854V53H72.8854ZM76.5454 43.97V40.58H86.8054V43.97H76.5454ZM94.3295 53V32H103.24C104.94 32 106.34 32.29 107.44 32.87C108.56 33.43 109.39 34.21 109.93 35.21C110.49 36.19 110.77 37.3 110.77 38.54C110.77 39.5 110.56 40.39 110.14 41.21C109.72 42.01 109.16 42.7 108.46 43.28C109.22 43.8 109.8 44.47 110.2 45.29C110.62 46.11 110.85 47.05 110.89 48.11L111.13 53H107.02L106.69 48.11C106.65 47.41 106.51 46.84 106.27 46.4C106.05 45.94 105.7 45.6 105.22 45.38C104.74 45.16 104.09 45.05 103.27 45.05H98.5295V53H94.3295ZM98.5295 41.66H102.97C104.21 41.66 105.11 41.38 105.67 40.82C106.23 40.26 106.51 39.5 106.51 38.54C106.51 37.56 106.23 36.8 105.67 36.26C105.11 35.7 104.21 35.42 102.97 35.42H98.5295V41.66ZM114.719 53V32H118.919V53H114.719ZM129.61 53L121.99 32H126.46L132.19 48.71L137.95 32H142.39L134.77 53H129.61ZM145.449 53V32H159.339V35.39H149.649V40.7H158.439V43.97H149.649V49.61H159.339V53H145.449Z"/>
</mask>
<path d="M54.078 25V4H58.278L67.788 18.25V4H71.988V25H67.788L58.278 10.81V25H54.078ZM76.0202 25V4H89.9102V7.39H80.2202V12.7H89.0102V15.97H80.2202V21.61H89.9102V25H76.0202ZM101.402 25.36C99.842 25.36 98.432 25.05 97.172 24.43C95.912 23.81 94.902 22.87 94.142 21.61C93.402 20.35 93.032 18.77 93.032 16.87V4H97.232V16.9C97.232 18.42 97.602 19.57 98.342 20.35C99.102 21.11 100.152 21.49 101.492 21.49C102.832 21.49 103.872 21.11 104.612 20.35C105.372 19.57 105.752 18.42 105.752 16.9V4H109.952V16.87C109.952 18.77 109.562 20.35 108.782 21.61C108.022 22.87 106.992 23.81 105.692 24.43C104.392 25.05 102.962 25.36 101.402 25.36ZM113.606 25V4H122.516C124.216 4 125.616 4.29 126.716 4.87C127.836 5.43 128.666 6.21 129.206 7.21C129.766 8.19 130.046 9.3 130.046 10.54C130.046 11.5 129.836 12.39 129.416 13.21C128.996 14.01 128.436 14.7 127.736 15.28C128.496 15.8 129.076 16.47 129.476 17.29C129.896 18.11 130.126 19.05 130.166 20.11L130.406 25H126.296L125.966 20.11C125.926 19.41 125.786 18.84 125.546 18.4C125.326 17.94 124.976 17.6 124.496 17.38C124.016 17.16 123.366 17.05 122.546 17.05H117.806V25H113.606ZM117.806 13.66H122.246C123.486 13.66 124.386 13.38 124.946 12.82C125.506 12.26 125.786 11.5 125.786 10.54C125.786 9.56 125.506 8.8 124.946 8.26C124.386 7.7 123.486 7.42 122.246 7.42H117.806V13.66ZM143.692 25.36C141.612 25.36 139.772 24.9 138.172 23.98C136.592 23.06 135.352 21.79 134.452 20.17C133.572 18.53 133.132 16.64 133.132 14.5C133.132 12.36 133.572 10.48 134.452 8.86C135.352 7.22 136.592 5.94 138.172 5.02C139.772 4.1 141.612 3.64 143.692 3.64C145.792 3.64 147.632 4.1 149.212 5.02C150.792 5.94 152.022 7.22 152.902 8.86C153.802 10.48 154.252 12.36 154.252 14.5C154.252 16.64 153.802 18.53 152.902 20.17C152.022 21.79 150.792 23.06 149.212 23.98C147.632 24.9 145.792 25.36 143.692 25.36ZM143.722 21.58C145.002 21.58 146.102 21.3 147.022 20.74C147.962 20.16 148.692 19.34 149.212 18.28C149.732 17.22 149.992 15.96 149.992 14.5C149.992 13.04 149.732 11.78 149.212 10.72C148.692 9.66 147.962 8.85 147.022 8.29C146.102 7.71 145.002 7.42 143.722 7.42C142.442 7.42 141.332 7.71 140.392 8.29C139.452 8.85 138.722 9.66 138.202 10.72C137.682 11.78 137.422 13.04 137.422 14.5C137.422 15.96 137.682 17.22 138.202 18.28C138.722 19.34 139.452 20.16 140.392 20.74C141.332 21.3 142.442 21.58 143.722 21.58ZM59.388 53V35.39H53.268V32H69.678V35.39H63.588V53H59.388ZM86.1154 53V32H90.3154V53H86.1154ZM72.8854 53V32H77.0854V53H72.8854ZM76.5454 43.97V40.58H86.8054V43.97H76.5454ZM94.3295 53V32H103.24C104.94 32 106.34 32.29 107.44 32.87C108.56 33.43 109.39 34.21 109.93 35.21C110.49 36.19 110.77 37.3 110.77 38.54C110.77 39.5 110.56 40.39 110.14 41.21C109.72 42.01 109.16 42.7 108.46 43.28C109.22 43.8 109.8 44.47 110.2 45.29C110.62 46.11 110.85 47.05 110.89 48.11L111.13 53H107.02L106.69 48.11C106.65 47.41 106.51 46.84 106.27 46.4C106.05 45.94 105.7 45.6 105.22 45.38C104.74 45.16 104.09 45.05 103.27 45.05H98.5295V53H94.3295ZM98.5295 41.66H102.97C104.21 41.66 105.11 41.38 105.67 40.82C106.23 40.26 106.51 39.5 106.51 38.54C106.51 37.56 106.23 36.8 105.67 36.26C105.11 35.7 104.21 35.42 102.97 35.42H98.5295V41.66ZM114.719 53V32H118.919V53H114.719ZM129.61 53L121.99 32H126.46L132.19 48.71L137.95 32H142.39L134.77 53H129.61ZM145.449 53V32H159.339V35.39H149.649V40.7H158.439V43.97H149.649V49.61H159.339V53H145.449Z" fill="#110000"/>
<path d="M54.078 25H53.278V25.8H54.078V25ZM54.078 4V3.2H53.278V4H54.078ZM58.278 4L58.9434 3.55592L58.7059 3.2H58.278V4ZM67.788 18.25L67.1225 18.6941L68.588 20.8899V18.25H67.788ZM67.788 4V3.2H66.988V4H67.788ZM71.988 4H72.788V3.2H71.988V4ZM71.988 25V25.8H72.788V25H71.988ZM67.788 25L67.1234 25.4454L67.3611 25.8H67.788V25ZM58.278 10.81L58.9425 10.3646L57.478 8.17933V10.81H58.278ZM58.278 25V25.8H59.078V25H58.278ZM54.078 25H54.878V4H54.078H53.278V25H54.078ZM54.078 4V4.8H58.278V4V3.2H54.078V4ZM58.278 4L57.6125 4.44408L67.1225 18.6941L67.788 18.25L68.4534 17.8059L58.9434 3.55592L58.278 4ZM67.788 18.25H68.588V4H67.788H66.988V18.25H67.788ZM67.788 4V4.8H71.988V4V3.2H67.788V4ZM71.988 4H71.188V25H71.988H72.788V4H71.988ZM71.988 25V24.2H67.788V25V25.8H71.988V25ZM67.788 25L68.4525 24.5546L58.9425 10.3646L58.278 10.81L57.6134 11.2554L67.1234 25.4454L67.788 25ZM58.278 10.81H57.478V25H58.278H59.078V10.81H58.278ZM58.278 25V24.2H54.078V25V25.8H58.278V25ZM76.0202 25H75.2202V25.8H76.0202V25ZM76.0202 4V3.2H75.2202V4H76.0202ZM89.9102 4H90.7102V3.2H89.9102V4ZM89.9102 7.39V8.19H90.7102V7.39H89.9102ZM80.2202 7.39V6.59H79.4202V7.39H80.2202ZM80.2202 12.7H79.4202V13.5H80.2202V12.7ZM89.0102 12.7H89.8102V11.9H89.0102V12.7ZM89.0102 15.97V16.77H89.8102V15.97H89.0102ZM80.2202 15.97V15.17H79.4202V15.97H80.2202ZM80.2202 21.61H79.4202V22.41H80.2202V21.61ZM89.9102 21.61H90.7102V20.81H89.9102V21.61ZM89.9102 25V25.8H90.7102V25H89.9102ZM76.0202 25H76.8202V4H76.0202H75.2202V25H76.0202ZM76.0202 4V4.8H89.9102V4V3.2H76.0202V4ZM89.9102 4H89.1102V7.39H89.9102H90.7102V4H89.9102ZM89.9102 7.39V6.59H80.2202V7.39V8.19H89.9102V7.39ZM80.2202 7.39H79.4202V12.7H80.2202H81.0202V7.39H80.2202ZM80.2202 12.7V13.5H89.0102V12.7V11.9H80.2202V12.7ZM89.0102 12.7H88.2102V15.97H89.0102H89.8102V12.7H89.0102ZM89.0102 15.97V15.17H80.2202V15.97V16.77H89.0102V15.97ZM80.2202 15.97H79.4202V21.61H80.2202H81.0202V15.97H80.2202ZM80.2202 21.61V22.41H89.9102V21.61V20.81H80.2202V21.61ZM89.9102 21.61H89.1102V25H89.9102H90.7102V21.61H89.9102ZM89.9102 25V24.2H76.0202V25V25.8H89.9102V25ZM97.172 24.43L96.8188 25.1478V25.1478L97.172 24.43ZM94.142 21.61L93.4522 22.0152L93.457 22.0232L94.142 21.61ZM93.032 4V3.2H92.232V4H93.032ZM97.232 4H98.032V3.2H97.232V4ZM98.342 20.35L97.7617 20.9006L97.7689 20.9082L97.7763 20.9157L98.342 20.35ZM104.612 20.35L104.039 19.7917L104.039 19.7919L104.612 20.35ZM105.752 4V3.2H104.952V4H105.752ZM109.952 4H110.752V3.2H109.952V4ZM108.782 21.61L108.102 21.1889L108.097 21.1968L108.782 21.61ZM105.692 24.43L105.348 23.7079V23.7079L105.692 24.43ZM101.402 25.36V24.56C99.9508 24.56 98.6637 24.2724 97.5252 23.7122L97.172 24.43L96.8188 25.1478C98.2004 25.8276 99.7333 26.16 101.402 26.16V25.36ZM97.172 24.43L97.5252 23.7122C96.4095 23.1632 95.5119 22.3322 94.8271 21.1968L94.142 21.61L93.457 22.0232C94.2922 23.4078 95.4146 24.4568 96.8188 25.1478L97.172 24.43ZM94.142 21.61L94.8319 21.2049C94.1826 20.0993 93.832 18.6693 93.832 16.87H93.032H92.232C92.232 18.8707 92.6215 20.6007 93.4522 22.0151L94.142 21.61ZM93.032 16.87H93.832V4H93.032H92.232V16.87H93.032ZM93.032 4V4.8H97.232V4V3.2H93.032V4ZM97.232 4H96.432V16.9H97.232H98.032V4H97.232ZM97.232 16.9H96.432C96.432 18.5399 96.8313 19.92 97.7617 20.9006L98.342 20.35L98.9224 19.7994C98.3727 19.22 98.032 18.3001 98.032 16.9H97.232ZM98.342 20.35L97.7763 20.9157C98.7214 21.8608 99.9952 22.29 101.492 22.29V21.49V20.69C100.309 20.69 99.4826 20.3592 98.9077 19.7843L98.342 20.35ZM101.492 21.49V22.29C102.988 22.29 104.257 21.8611 105.185 20.9081L104.612 20.35L104.039 19.7919C103.487 20.3589 102.676 20.69 101.492 20.69V21.49ZM104.612 20.35L105.185 20.9083C106.14 19.9282 106.552 18.545 106.552 16.9H105.752H104.952C104.952 18.295 104.604 19.2118 104.039 19.7917L104.612 20.35ZM105.752 16.9H106.552V4H105.752H104.952V16.9H105.752ZM105.752 4V4.8H109.952V4V3.2H105.752V4ZM109.952 4H109.152V16.87H109.952H110.752V4H109.952ZM109.952 16.87H109.152C109.152 18.6626 108.784 20.0865 108.102 21.1889L108.782 21.61L109.462 22.0311C110.34 20.6135 110.752 18.8774 110.752 16.87H109.952ZM108.782 21.61L108.097 21.1968C107.416 22.3258 106.503 23.1569 105.348 23.7079L105.692 24.43L106.036 25.1521C107.481 24.4631 108.628 23.4142 109.467 22.0232L108.782 21.61ZM105.692 24.43L105.348 23.7079C104.164 24.2725 102.853 24.56 101.402 24.56V25.36V26.16C103.071 26.16 104.62 25.8275 106.036 25.1521L105.692 24.43ZM113.606 25H112.806V25.8H113.606V25ZM113.606 4V3.2H112.806V4H113.606ZM126.716 4.87L126.343 5.57765L126.35 5.58168L126.358 5.58554L126.716 4.87ZM129.206 7.21L128.502 7.59012L128.506 7.59857L128.511 7.60691L129.206 7.21ZM129.416 13.21L130.124 13.5819L130.128 13.5747L129.416 13.21ZM127.736 15.28L127.225 14.664L126.408 15.341L127.284 15.9402L127.736 15.28ZM129.476 17.29L128.757 17.6407L128.76 17.6478L128.764 17.6547L129.476 17.29ZM130.166 20.11L129.366 20.1402L129.367 20.1492L130.166 20.11ZM130.406 25V25.8H131.246L131.205 24.9608L130.406 25ZM126.296 25L125.498 25.0539L125.548 25.8H126.296V25ZM125.966 20.11L125.167 20.1556L125.168 20.1639L125.966 20.11ZM125.546 18.4L124.824 18.7452L124.833 18.7644L124.843 18.7831L125.546 18.4ZM124.496 17.38L124.162 18.1073V18.1073L124.496 17.38ZM117.806 17.05V16.25H117.006V17.05H117.806ZM117.806 25V25.8H118.606V25H117.806ZM117.806 13.66H117.006V14.46H117.806V13.66ZM124.946 8.26L124.38 8.82568L124.385 8.83083L124.39 8.83587L124.946 8.26ZM117.806 7.42V6.62H117.006V7.42H117.806ZM113.606 25H114.406V4H113.606H112.806V25H113.606ZM113.606 4V4.8H122.516V4V3.2H113.606V4ZM122.516 4V4.8C124.131 4.8 125.392 5.07643 126.343 5.57765L126.716 4.87L127.089 4.16234C125.839 3.50356 124.3 3.2 122.516 3.2V4ZM126.716 4.87L126.358 5.58554C127.346 6.07982 128.048 6.74955 128.502 7.59012L129.206 7.21L129.91 6.82988C129.284 5.67045 128.325 4.78018 127.073 4.15446L126.716 4.87ZM129.206 7.21L128.511 7.60691C128.995 8.45436 129.246 9.42513 129.246 10.54H130.046H130.846C130.846 9.17487 130.536 7.92564 129.9 6.81309L129.206 7.21ZM130.046 10.54H129.246C129.246 11.3787 129.063 12.143 128.704 12.8453L129.416 13.21L130.128 13.5747C130.608 12.637 130.846 11.6213 130.846 10.54H130.046ZM129.416 13.21L128.707 12.8381C128.337 13.5439 127.844 14.1511 127.225 14.664L127.736 15.28L128.246 15.896C129.027 15.2489 129.655 14.4761 130.124 13.5819L129.416 13.21ZM127.736 15.28L127.284 15.9402C127.931 16.3827 128.418 16.9465 128.757 17.6407L129.476 17.29L130.195 16.9393C129.733 15.9935 129.061 15.2173 128.187 14.6198L127.736 15.28ZM129.476 17.29L128.764 17.6547C129.123 18.3563 129.33 19.1791 129.366 20.1402L130.166 20.11L130.965 20.0798C130.921 18.9209 130.668 17.8637 130.188 16.9253L129.476 17.29ZM130.166 20.11L129.367 20.1492L129.607 25.0392L130.406 25L131.205 24.9608L130.965 20.0708L130.166 20.11ZM130.406 25V24.2H126.296V25V25.8H130.406V25ZM126.296 25L127.094 24.9461L126.764 20.0561L125.966 20.11L125.168 20.1639L125.498 25.0539L126.296 25ZM125.966 20.11L126.764 20.0644C126.72 19.2903 126.563 18.5938 126.248 18.0169L125.546 18.4L124.843 18.7831C125.009 19.0862 125.131 19.5297 125.167 20.1556L125.966 20.11ZM125.546 18.4L126.267 18.0548C125.964 17.4195 125.473 16.9477 124.829 16.6527L124.496 17.38L124.162 18.1073C124.479 18.2523 124.688 18.4605 124.824 18.7452L125.546 18.4ZM124.496 17.38L124.829 16.6527C124.203 16.3657 123.424 16.25 122.546 16.25V17.05V17.85C123.308 17.85 123.829 17.9543 124.162 18.1073L124.496 17.38ZM122.546 17.05V16.25H117.806V17.05V17.85H122.546V17.05ZM117.806 17.05H117.006V25H117.806H118.606V17.05H117.806ZM117.806 25V24.2H113.606V25V25.8H117.806V25ZM117.806 13.66V14.46H122.246V13.66V12.86H117.806V13.66ZM122.246 13.66V14.46C123.581 14.46 124.735 14.1618 125.511 13.3857L124.946 12.82L124.38 12.2543C124.036 12.5982 123.39 12.86 122.246 12.86V13.66ZM124.946 12.82L125.511 13.3857C126.252 12.6448 126.586 11.6641 126.586 10.54H125.786H124.986C124.986 11.3359 124.759 11.8752 124.38 12.2543L124.946 12.82ZM125.786 10.54H126.586C126.586 9.40256 126.256 8.41189 125.501 7.68412L124.946 8.26L124.39 8.83587C124.756 9.18811 124.986 9.71744 124.986 10.54H125.786ZM124.946 8.26L125.511 7.69431C124.735 6.9182 123.581 6.62 122.246 6.62V7.42V8.22C123.39 8.22 124.036 8.4818 124.38 8.82568L124.946 8.26ZM122.246 7.42V6.62H117.806V7.42V8.22H122.246V7.42ZM117.806 7.42H117.006V13.66H117.806H118.606V7.42H117.806ZM138.172 23.98L137.77 24.6714L137.773 24.6735L138.172 23.98ZM134.452 20.17L133.747 20.5483L133.753 20.5585L134.452 20.17ZM134.452 8.86L133.751 8.47512L133.749 8.47813L134.452 8.86ZM138.172 5.02L137.773 4.32646L137.77 4.32866L138.172 5.02ZM152.902 8.86L152.197 9.23829L152.203 9.24851L152.902 8.86ZM152.902 20.17L152.201 19.7851L152.199 19.7881L152.902 20.17ZM149.212 23.98L149.615 24.6713V24.6713L149.212 23.98ZM147.022 20.74L147.438 21.4234L147.442 21.4208L147.022 20.74ZM149.212 18.28L148.494 17.9277V17.9277L149.212 18.28ZM149.212 10.72L148.494 11.0723V11.0723L149.212 10.72ZM147.022 8.29L146.596 8.96674L146.604 8.97212L146.613 8.97728L147.022 8.29ZM140.392 8.29L140.802 8.97736L140.812 8.97083L140.392 8.29ZM138.202 10.72L138.92 11.0723V11.0723L138.202 10.72ZM138.202 18.28L138.92 17.9277V17.9277L138.202 18.28ZM140.392 20.74L139.972 21.4209L139.983 21.4273L140.392 20.74ZM143.692 25.36V24.56C141.734 24.56 140.035 24.1282 138.571 23.2865L138.172 23.98L137.773 24.6735C139.51 25.6718 141.49 26.16 143.692 26.16V25.36ZM138.172 23.98L138.575 23.2887C137.121 22.4421 135.983 21.2775 135.152 19.7815L134.452 20.17L133.753 20.5585C134.722 22.3025 136.064 23.6779 137.77 24.6713L138.172 23.98ZM134.452 20.17L135.157 19.7917C134.348 18.2844 133.932 16.5279 133.932 14.5H133.132H132.332C132.332 16.7521 132.796 18.7756 133.747 20.5483L134.452 20.17ZM133.132 14.5H133.932C133.932 12.4718 134.348 10.7271 135.155 9.24186L134.452 8.86L133.749 8.47813C132.796 10.2329 132.332 12.2482 132.332 14.5H133.132ZM134.452 8.86L135.154 9.24488C135.985 7.72917 137.123 6.55646 138.575 5.71134L138.172 5.02L137.77 4.32866C136.061 5.32354 134.719 6.71083 133.751 8.47512L134.452 8.86ZM138.172 5.02L138.571 5.71352C140.035 4.8718 141.734 4.44 143.692 4.44V3.64V2.84C141.49 2.84 139.51 3.3282 137.773 4.32647L138.172 5.02ZM143.692 3.64V4.44C145.672 4.44 147.369 4.87252 148.81 5.71134L149.212 5.02L149.615 4.32866C147.895 3.32748 145.912 2.84 143.692 2.84V3.64ZM149.212 5.02L148.81 5.71134C150.259 6.55553 151.386 7.72609 152.197 9.23825L152.902 8.86L153.607 8.48174C152.659 6.71391 151.325 5.32447 149.615 4.32866L149.212 5.02ZM152.902 8.86L152.203 9.24851C153.027 10.7324 153.452 12.4747 153.452 14.5H154.252H155.052C155.052 12.2453 154.577 10.2276 153.602 8.47148L152.902 8.86ZM154.252 14.5H153.452C153.452 16.525 153.027 18.2791 152.201 19.7851L152.902 20.17L153.604 20.5549C154.577 18.7809 155.052 16.755 155.052 14.5H154.252ZM152.902 20.17L152.199 19.7881C151.389 21.2806 150.262 22.443 148.81 23.2887L149.212 23.98L149.615 24.6713C151.322 23.677 152.656 22.2994 153.605 20.5519L152.902 20.17ZM149.212 23.98L148.81 23.2887C147.369 24.1275 145.672 24.56 143.692 24.56V25.36V26.16C145.912 26.16 147.895 25.6725 149.615 24.6713L149.212 23.98ZM143.722 21.58V22.38C145.121 22.38 146.371 22.073 147.438 21.4234L147.022 20.74L146.606 20.0566C145.833 20.527 144.883 20.78 143.722 20.78V21.58ZM147.022 20.74L147.442 21.4208C148.52 20.7561 149.349 19.818 149.93 18.6323L149.212 18.28L148.494 17.9277C148.036 18.862 147.405 19.5639 146.602 20.0592L147.022 20.74ZM149.212 18.28L149.93 18.6323C150.515 17.4398 150.792 16.0539 150.792 14.5H149.992H149.192C149.192 15.8661 148.949 17.0002 148.494 17.9277L149.212 18.28ZM149.992 14.5H150.792C150.792 12.9461 150.515 11.5602 149.93 10.3677L149.212 10.72L148.494 11.0723C148.949 11.9998 149.192 13.1339 149.192 14.5H149.992ZM149.212 10.72L149.93 10.3677C149.348 9.17994 148.515 8.24839 147.432 7.60272L147.022 8.29L146.613 8.97728C147.409 9.45161 148.037 10.1401 148.494 11.0723L149.212 10.72ZM147.022 8.29L147.449 7.61326C146.38 6.9394 145.126 6.62 143.722 6.62V7.42V8.22C144.878 8.22 145.824 8.4806 146.596 8.96674L147.022 8.29ZM143.722 7.42V6.62C142.318 6.62 141.057 6.93956 139.972 7.60917L140.392 8.29L140.812 8.97083C141.607 8.48044 142.567 8.22 143.722 8.22V7.42ZM140.392 8.29L139.983 7.60272C138.899 8.24839 138.067 9.17994 137.484 10.3677L138.202 10.72L138.92 11.0723C139.378 10.1401 140.005 9.45161 140.802 8.97728L140.392 8.29ZM138.202 10.72L137.484 10.3677C136.899 11.5602 136.622 12.9461 136.622 14.5H137.422H138.222C138.222 13.1339 138.465 11.9998 138.92 11.0723L138.202 10.72ZM137.422 14.5H136.622C136.622 16.0539 136.899 17.4398 137.484 18.6323L138.202 18.28L138.92 17.9277C138.465 17.0002 138.222 15.8661 138.222 14.5H137.422ZM138.202 18.28L137.484 18.6323C138.066 19.818 138.895 20.7561 139.972 21.4208L140.392 20.74L140.812 20.0592C140.01 19.5639 139.379 18.862 138.92 17.9277L138.202 18.28ZM140.392 20.74L139.983 21.4273C141.066 22.0728 142.323 22.38 143.722 22.38V21.58V20.78C142.562 20.78 141.598 20.5272 140.802 20.0527L140.392 20.74ZM59.388 53H58.588V53.8H59.388V53ZM59.388 35.39H60.188V34.59H59.388V35.39ZM53.268 35.39H52.468V36.19H53.268V35.39ZM53.268 32V31.2H52.468V32H53.268ZM69.678 32H70.478V31.2H69.678V32ZM69.678 35.39V36.19H70.478V35.39H69.678ZM63.588 35.39V34.59H62.788V35.39H63.588ZM63.588 53V53.8H64.388V53H63.588ZM59.388 53H60.188V35.39H59.388H58.588V53H59.388ZM59.388 35.39V34.59H53.268V35.39V36.19H59.388V35.39ZM53.268 35.39H54.068V32H53.268H52.468V35.39H53.268ZM53.268 32V32.8H69.678V32V31.2H53.268V32ZM69.678 32H68.878V35.39H69.678H70.478V32H69.678ZM69.678 35.39V34.59H63.588V35.39V36.19H69.678V35.39ZM63.588 35.39H62.788V53H63.588H64.388V35.39H63.588ZM63.588 53V52.2H59.388V53V53.8H63.588V53ZM86.1154 53H85.3154V53.8H86.1154V53ZM86.1154 32V31.2H85.3154V32H86.1154ZM90.3154 32H91.1154V31.2H90.3154V32ZM90.3154 53V53.8H91.1154V53H90.3154ZM72.8854 53H72.0854V53.8H72.8854V53ZM72.8854 32V31.2H72.0854V32H72.8854ZM77.0854 32H77.8854V31.2H77.0854V32ZM77.0854 53V53.8H77.8854V53H77.0854ZM76.5454 43.97H75.7454V44.77H76.5454V43.97ZM76.5454 40.58V39.78H75.7454V40.58H76.5454ZM86.8054 40.58H87.6054V39.78H86.8054V40.58ZM86.8054 43.97V44.77H87.6054V43.97H86.8054ZM86.1154 53H86.9154V32H86.1154H85.3154V53H86.1154ZM86.1154 32V32.8H90.3154V32V31.2H86.1154V32ZM90.3154 32H89.5154V53H90.3154H91.1154V32H90.3154ZM90.3154 53V52.2H86.1154V53V53.8H90.3154V53ZM72.8854 53H73.6854V32H72.8854H72.0854V53H72.8854ZM72.8854 32V32.8H77.0854V32V31.2H72.8854V32ZM77.0854 32H76.2854V53H77.0854H77.8854V32H77.0854ZM77.0854 53V52.2H72.8854V53V53.8H77.0854V53ZM76.5454 43.97H77.3454V40.58H76.5454H75.7454V43.97H76.5454ZM76.5454 40.58V41.38H86.8054V40.58V39.78H76.5454V40.58ZM86.8054 40.58H86.0054V43.97H86.8054H87.6054V40.58H86.8054ZM86.8054 43.97V43.17H76.5454V43.97V44.77H86.8054V43.97ZM94.3295 53H93.5295V53.8H94.3295V53ZM94.3295 32V31.2H93.5295V32H94.3295ZM107.44 32.87L107.066 33.5777L107.074 33.5817L107.082 33.5855L107.44 32.87ZM109.93 35.21L109.226 35.5901L109.23 35.5986L109.235 35.6069L109.93 35.21ZM110.14 41.21L110.848 41.5819L110.852 41.5747L110.14 41.21ZM108.46 43.28L107.949 42.664L107.132 43.341L108.008 43.9402L108.46 43.28ZM110.2 45.29L109.481 45.6407L109.484 45.6478L109.487 45.6547L110.2 45.29ZM110.89 48.11L110.09 48.1402L110.09 48.1492L110.89 48.11ZM111.13 53V53.8H111.97L111.929 52.9608L111.13 53ZM107.02 53L106.221 53.0539L106.272 53.8H107.02V53ZM106.69 48.11L105.891 48.1556L105.891 48.1639L106.69 48.11ZM106.27 46.4L105.548 46.7452L105.557 46.7644L105.567 46.7831L106.27 46.4ZM105.22 45.38L104.886 46.1073V46.1073L105.22 45.38ZM98.5295 45.05V44.25H97.7295V45.05H98.5295ZM98.5295 53V53.8H99.3295V53H98.5295ZM98.5295 41.66H97.7295V42.46H98.5295V41.66ZM105.67 36.26L105.104 36.8257L105.109 36.8308L105.114 36.8359L105.67 36.26ZM98.5295 35.42V34.62H97.7295V35.42H98.5295ZM94.3295 53H95.1295V32H94.3295H93.5295V53H94.3295ZM94.3295 32V32.8H103.24V32V31.2H94.3295V32ZM103.24 32V32.8C104.855 32.8 106.116 33.0764 107.066 33.5777L107.44 32.87L107.813 32.1623C106.563 31.5036 105.024 31.2 103.24 31.2V32ZM107.44 32.87L107.082 33.5855C108.07 34.0798 108.772 34.7495 109.226 35.5901L109.93 35.21L110.633 34.8299C110.007 33.6704 109.049 32.7802 107.797 32.1545L107.44 32.87ZM109.93 35.21L109.235 35.6069C109.719 36.4544 109.97 37.4251 109.97 38.54H110.77H111.57C111.57 37.1749 111.26 35.9256 110.624 34.8131L109.93 35.21ZM110.77 38.54H109.97C109.97 39.3787 109.787 40.143 109.427 40.8453L110.14 41.21L110.852 41.5747C111.332 40.637 111.57 39.6213 111.57 38.54H110.77ZM110.14 41.21L109.431 40.8381C109.061 41.5439 108.568 42.1511 107.949 42.664L108.46 43.28L108.97 43.896C109.751 43.2489 110.378 42.4761 110.848 41.5819L110.14 41.21ZM108.46 43.28L108.008 43.9402C108.655 44.3827 109.142 44.9465 109.481 45.6407L110.2 45.29L110.919 44.9393C110.457 43.9935 109.785 43.2173 108.911 42.6198L108.46 43.28ZM110.2 45.29L109.487 45.6547C109.847 46.3563 110.054 47.1791 110.09 48.1402L110.89 48.11L111.689 48.0798C111.645 46.9209 111.392 45.8637 110.912 44.9253L110.2 45.29ZM110.89 48.11L110.09 48.1492L110.33 53.0392L111.13 53L111.929 52.9608L111.689 48.0708L110.89 48.11ZM111.13 53V52.2H107.02V53V53.8H111.13V53ZM107.02 53L107.818 52.9461L107.488 48.0561L106.69 48.11L105.891 48.1639L106.221 53.0539L107.02 53ZM106.69 48.11L107.488 48.0644C107.444 47.2903 107.286 46.5938 106.972 46.0169L106.27 46.4L105.567 46.7831C105.733 47.0862 105.855 47.5297 105.891 48.1556L106.69 48.11ZM106.27 46.4L106.991 46.0548C106.687 45.4195 106.196 44.9477 105.553 44.6527L105.22 45.38L104.886 46.1073C105.203 46.2523 105.412 46.4605 105.548 46.7452L106.27 46.4ZM105.22 45.38L105.553 44.6527C104.926 44.3657 104.147 44.25 103.27 44.25V45.05V45.85C104.032 45.85 104.553 45.9543 104.886 46.1073L105.22 45.38ZM103.27 45.05V44.25H98.5295V45.05V45.85H103.27V45.05ZM98.5295 45.05H97.7295V53H98.5295H99.3295V45.05H98.5295ZM98.5295 53V52.2H94.3295V53V53.8H98.5295V53ZM98.5295 41.66V42.46H102.97V41.66V40.86H98.5295V41.66ZM102.97 41.66V42.46C104.305 42.46 105.459 42.1618 106.235 41.3857L105.67 40.82L105.104 40.2543C104.76 40.5982 104.114 40.86 102.97 40.86V41.66ZM105.67 40.82L106.235 41.3857C106.976 40.6448 107.31 39.6641 107.31 38.54H106.51H105.71C105.71 39.3359 105.483 39.8752 105.104 40.2543L105.67 40.82ZM106.51 38.54H107.31C107.31 37.4026 106.98 36.4119 106.225 35.6841L105.67 36.26L105.114 36.8359C105.48 37.1881 105.71 37.7174 105.71 38.54H106.51ZM105.67 36.26L106.235 35.6943C105.459 34.9182 104.305 34.62 102.97 34.62V35.42V36.22C104.114 36.22 104.76 36.4818 105.104 36.8257L105.67 36.26ZM102.97 35.42V34.62H98.5295V35.42V36.22H102.97V35.42ZM98.5295 35.42H97.7295V41.66H98.5295H99.3295V35.42H98.5295ZM114.719 53H113.919V53.8H114.719V53ZM114.719 32V31.2H113.919V32H114.719ZM118.919 32H119.719V31.2H118.919V32ZM118.919 53V53.8H119.719V53H118.919ZM114.719 53H115.519V32H114.719H113.919V53H114.719ZM114.719 32V32.8H118.919V32V31.2H114.719V32ZM118.919 32H118.119V53H118.919H119.719V32H118.919ZM118.919 53V52.2H114.719V53V53.8H118.919V53ZM129.61 53L128.858 53.2729L129.049 53.8H129.61V53ZM121.99 32V31.2H120.849L121.238 32.2729L121.99 32ZM126.46 32L127.217 31.7405L127.032 31.2H126.46V32ZM132.19 48.71L131.433 48.9695L132.188 51.1706L132.947 48.9707L132.19 48.71ZM137.95 32V31.2H137.38L137.194 31.7393L137.95 32ZM142.39 32L143.142 32.2729L143.532 31.2H142.39V32ZM134.77 53V53.8H135.331L135.522 53.2729L134.77 53ZM129.61 53L130.362 52.7271L122.742 31.7271L121.99 32L121.238 32.2729L128.858 53.2729L129.61 53ZM121.99 32V32.8H126.46V32V31.2H121.99V32ZM126.46 32L125.703 32.2595L131.433 48.9695L132.19 48.71L132.947 48.4505L127.217 31.7405L126.46 32ZM132.19 48.71L132.947 48.9707L138.707 32.2607L137.95 32L137.194 31.7393L131.434 48.4493L132.19 48.71ZM137.95 32V32.8H142.39V32V31.2H137.95V32ZM142.39 32L141.638 31.7271L134.018 52.7271L134.77 53L135.522 53.2729L143.142 32.2729L142.39 32ZM134.77 53V52.2H129.61V53V53.8H134.77V53ZM145.449 53H144.649V53.8H145.449V53ZM145.449 32V31.2H144.649V32H145.449ZM159.339 32H160.139V31.2H159.339V32ZM159.339 35.39V36.19H160.139V35.39H159.339ZM149.649 35.39V34.59H148.849V35.39H149.649ZM149.649 40.7H148.849V41.5H149.649V40.7ZM158.439 40.7H159.239V39.9H158.439V40.7ZM158.439 43.97V44.77H159.239V43.97H158.439ZM149.649 43.97V43.17H148.849V43.97H149.649ZM149.649 49.61H148.849V50.41H149.649V49.61ZM159.339 49.61H160.139V48.81H159.339V49.61ZM159.339 53V53.8H160.139V53H159.339ZM145.449 53H146.249V32H145.449H144.649V53H145.449ZM145.449 32V32.8H159.339V32V31.2H145.449V32ZM159.339 32H158.539V35.39H159.339H160.139V32H159.339ZM159.339 35.39V34.59H149.649V35.39V36.19H159.339V35.39ZM149.649 35.39H148.849V40.7H149.649H150.449V35.39H149.649ZM149.649 40.7V41.5H158.439V40.7V39.9H149.649V40.7ZM158.439 40.7H157.639V43.97H158.439H159.239V40.7H158.439ZM158.439 43.97V43.17H149.649V43.97V44.77H158.439V43.97ZM149.649 43.97H148.849V49.61H149.649H150.449V43.97H149.649ZM149.649 49.61V50.41H159.339V49.61V48.81H149.649V49.61ZM159.339 49.61H158.539V53H159.339H160.139V49.61H159.339ZM159.339 53V52.2H145.449V53V53.8H159.339V53Z" fill="#110000" mask="url(#path-2-outside-1_7164_10080)"/>
</svg>
