<svg width="288" height="432" viewBox="0 0 288 432" fill="none" xmlns="http://www.w3.org/2000/svg">
<g clip-path="url(#clip0_7220_636)">
<path d="M216 360H252C271.882 360 288 376.118 288 396C288 415.882 271.882 432 252 432C232.118 432 216 415.882 216 396V360Z" fill="#5CE5B8"/>
<path d="M72 324C72 304.118 88.1178 288 108 288C127.882 288 144 304.118 144 324C144 343.882 127.882 360 108 360H72V324Z" fill="#47B28F"/>
<path d="M144 252C144 232.118 160.118 216 180 216C199.882 216 216 232.118 216 252C216 271.882 199.882 288 180 288H144V252Z" fill="#5CE5B8"/>
<path d="M144 180C144 160.118 160.118 144 180 144C199.882 144 216 160.118 216 180C216 199.882 199.882 216 180 216H144V180Z" fill="#337F66"/>
<path d="M216 36C216 16.1178 232.118 0 252 0C271.882 0 288 16.1178 288 36V72H252C232.118 72 216 55.8823 216 36Z" fill="#337F66"/>
<path d="M144 252C144 271.882 127.882 288 108 288V216C127.882 216 144 232.118 144 252Z" fill="#47B28F"/>
<path d="M108 252C108 271.882 91.8822 288 72 288V216C91.8822 216 108 232.118 108 252Z" fill="#337F66"/>
<path d="M36 252C36 232.118 52.1178 216 72 216L72 288C52.1178 288 36 271.882 36 252Z" fill="#5CE5B8"/>
<path d="M3.14722e-06 252C4.88538e-06 232.118 16.1178 216 36 216L36 288C16.1178 288 1.40906e-06 271.882 3.14722e-06 252Z" fill="#337F66"/>
<path d="M180 72C160.118 72 144 55.8822 144 36L216 36C216 55.8822 199.882 72 180 72Z" fill="#5CE5B8"/>
<path d="M180 36C160.118 36 144 19.8822 144 -7.15303e-06L216 0C216 19.8822 199.882 36 180 36Z" fill="#47B28F"/>
<path d="M0 72L144 1.71718e-06L144 72L0 72Z" fill="#337F66"/>
<path d="M288 144L288 216L216 144L288 144Z" fill="#337F66"/>
<path d="M216 216L216 144L288 216L216 216Z" fill="#47B28F"/>
<path d="M8.56803e-06 432L1.71718e-06 288L144 432L8.56803e-06 432Z" fill="#5CE5B8"/>
<path d="M288 144L216 144L288 72L288 144Z" fill="#47B28F"/>
<path d="M216 144L144 144L144 108C144 88.1177 160.118 72 180 72C199.882 72 216 88.1178 216 108L216 144Z" fill="#47B28F"/>
<path d="M72 144C32.2355 144 0 111.764 0 72H144C144 111.764 111.764 144 72 144Z" fill="#5CE5B8"/>
<path d="M72 216C32.2355 216 0 183.764 0 144H144C144 183.764 111.764 216 72 216Z" fill="#47B28F"/>
<path d="M216 360C216 399.764 183.764 432 144 432L144 288C183.764 288 216 320.236 216 360Z" fill="#337F66"/>
<path d="M288 288C288 327.765 255.764 360 216 360L216 216C255.765 216 288 248.236 288 288Z" fill="#47B28F"/>
</g>
<defs>
<clipPath id="clip0_7220_636">
<rect width="288" height="432" fill="white"/>
</clipPath>
</defs>
</svg>
